HIERARCHY
ROOT hip
{
	OFFSET 0.000000 0.000000 0.000000 
	CHANNELS 6 Xposition Yposition Zposition Xrotation Zrotation Yrotation
	JOINT abdomen
	{
		OFFSET 0.000000 3.402643 0.000000 
		CHANNELS 3 Xrotation Zrotation Yrotation
		JOINT chest
		{
			OFFSET 0.000000 8.438565 -0.680529 
			CHANNELS 3 Xrotation Zrotation Yrotation
			JOINT neck
			{
				OFFSET 0.000000 10.207942 -0.272212 
				CHANNELS 3 Xrotation Zrotation Yrotation
				JOINT head
				{
					OFFSET 0.000000 3.130431 0.000000 
					CHANNELS 3 Xrotation Zrotation Yrotation
					End Site
					{
						OFFSET 0.000000 3.130435 0.000000 
					}
				}
			}
			JOINT lCollar
			{
				OFFSET 3.470700 6.669187 -0.816635 
				CHANNELS 3 Yrotation Zrotation Xrotation
				JOINT lShldr
				{
					OFFSET 3.198488 0.000000 0.000000 
					CHANNELS 3 Zrotation Yrotation Xrotation
					JOINT lForeArm
					{
						OFFSET 10.139888 0.000000 0.000000 
						CHANNELS 3 Yrotation Zrotation Xrotation
						JOINT lHand
						{
							OFFSET 8.370511 0.000000 0.000000 
							CHANNELS 3 Zrotation Yrotation Xrotation
							End Site
							{
								OFFSET 4.083176 0.000000 0.000000 
							}
						}
					}
				}
			}
			JOINT rCollar
			{
				OFFSET -3.470700 6.669187 -0.816635 
				CHANNELS 3 Yrotation Zrotation Xrotation
				JOINT rShldr
				{
					OFFSET -3.198488 0.000000 0.000000 
					CHANNELS 3 Zrotation Yrotation Xrotation
					JOINT rForeArm
					{
						OFFSET -10.139888 0.000000 0.000000 
						CHANNELS 3 Yrotation Zrotation Xrotation
						JOINT rHand
						{
							OFFSET -8.370511 0.000000 0.000000 
							CHANNELS 3 Zrotation Yrotation Xrotation
							End Site
							{
								OFFSET -4.083176 0.000000 0.000000 
							}
						}
					}
				}
			}
		}
	}
	JOINT lThigh
	{
		OFFSET 5.308129 -1.633274 1.361059 
		CHANNELS 3 Xrotation Zrotation Yrotation
		JOINT lShin
		{
			OFFSET -2.041588 -20.007561 0.000000 
			CHANNELS 3 Xrotation Zrotation Yrotation
			JOINT lFoot
			{
				OFFSET 0.000000 -19.190928 -1.224953 
				CHANNELS 3 Xrotation Yrotation Zrotation
				End Site
				{
					OFFSET 0.000000 -2.449906 4.627600 
				}
			}
		}
	}
	JOINT rThigh
	{
		OFFSET -5.308129 -1.633274 1.361059 
		CHANNELS 3 Xrotation Zrotation Yrotation
		JOINT rShin
		{
			OFFSET 2.041588 -20.007561 0.000000 
			CHANNELS 3 Xrotation Zrotation Yrotation
			JOINT rFoot
			{
				OFFSET 0.000000 -19.190928 -1.224953 
				CHANNELS 3 Xrotation Yrotation Zrotation
				End Site
				{
					OFFSET 0.000000 -2.449906 4.627600 
				}
			}
		}
	}
}
MOTION
Frames: 9
Frame Time: 0.033333
-20.476500 152.593277 -52.119167 -15.962715 -4.235101 129.637451 57.334652 1.808386 -13.757345 -20.839844 0.000000 0.000000 -18.343618 -11.555965 46.264118 -2.520846 -1.255050 0.218350 -4.754607 -0.109226 -0.002657 -100.544334 -20.905581 32.336647 -16.639732 10.907693 5.688323 -21.485491 14.855130 -44.272854 4.754607 0.109226 -0.002676 63.589176 -53.011692 -10.735490 138.830322 24.725342 -27.187187 44.151157 -25.267078 -15.501937 -80.852631 34.232471 14.644622 133.572998 -17.888500 -34.913910 17.807737 -19.139807 -14.853484 -29.017916 -17.151474 -20.705282 62.146984 23.612986 4.967912 -22.840492 13.987110 10.990825 
-20.817152 152.627792 -51.837902 -16.227667 -3.779214 132.104416 58.587067 1.315925 -14.393553 -20.839844 0.000000 0.000000 -18.368265 -10.641949 45.567410 -2.520846 -1.255050 0.218350 -4.754607 -0.109226 -0.002657 -100.717896 -21.767176 33.072464 -16.777323 10.747117 5.179103 -20.934034 13.354333 -44.895016 4.754607 0.109226 -0.002676 63.298088 -53.069927 -10.478185 139.491089 24.676559 -27.795168 44.056614 -25.049091 -15.616905 -80.379082 33.895126 14.977886 132.179306 -18.666914 -34.894093 18.333115 -19.843105 -16.980272 -28.316526 -16.421421 -20.771599 58.813278 23.523478 3.559840 -23.468685 13.723770 12.118314 
-21.066679 152.577530 -51.567833 -16.832991 -3.159646 134.880768 59.645714 1.325299 -15.100068 -20.839844 0.000000 0.000000 -18.829683 -9.267606 44.926548 -2.520846 -1.255050 0.218350 -4.754607 -0.109226 -0.002657 -100.999916 -21.045963 26.507542 -19.833065 8.725732 1.980662 -18.712900 15.763810 -34.564751 4.754607 0.109226 -0.002676 63.439884 -53.913132 -10.700485 140.065659 24.703505 -28.029171 44.141186 -24.163412 -14.899911 -80.601555 33.463509 14.886257 131.555878 -18.785803 -34.702724 17.770462 -20.095776 -18.369141 -28.082624 -15.845916 -20.750921 56.816746 23.481447 2.842914 -23.841114 13.795457 12.941469 
-21.236492 152.529312 -51.256615 -17.564766 -2.402203 137.683701 60.562401 1.474205 -15.558343 -20.839844 0.000000 0.000000 -18.745388 -8.334104 44.186432 -2.520846 -1.255050 0.218350 -4.754607 -0.109226 -0.002657 -101.278313 -21.558027 24.634865 -20.485443 8.381424 1.115983 -18.054943 15.641292 -30.408344 4.754607 0.109226 -0.002676 63.003769 -54.820606 -10.463941 140.244736 25.221701 -28.147438 42.990314 -22.745094 -13.254235 -81.541893 32.860672 14.400947 131.134583 -18.578917 -34.169281 17.541140 -20.003780 -19.281651 -28.121069 -15.317854 -20.764582 55.744530 23.560944 2.564664 -23.959253 14.194455 12.916446 
-21.375393 152.558762 -50.909355 -17.885763 -1.319724 140.152298 61.733135 1.200962 -15.710084 -20.839844 0.000000 0.000000 -17.638960 -7.985628 43.627132 -2.520846 -1.255050 0.218350 -4.754607 -0.109226 -0.002657 -101.200951 -25.125462 35.879780 -15.811155 11.425510 5.266243 -21.314419 9.448978 -45.600994 4.754607 0.109226 -0.002676 62.751339 -55.563602 -10.327909 140.193130 25.728872 -28.436010 41.918709 -21.607492 -12.363141 -82.186897 32.226246 13.856521 130.576584 -18.207897 -33.463127 17.396540 -20.017357 -20.663256 -27.586641 -14.793485 -20.899553 54.803524 23.711174 2.264694 -24.004606 14.703307 12.342335 
-21.492367 152.596344 -50.624565 -18.428545 -0.528097 142.646652 62.072884 0.843787 -15.833989 -20.839844 0.000000 0.000000 -16.211231 -7.750332 42.804638 -2.520846 -1.255050 0.218350 -4.754607 -0.109226 -0.002657 -100.526634 -27.695478 41.223831 -12.500804 12.220156 6.707483 -21.697767 6.181674 -53.316769 4.754607 0.109226 -0.002676 65.601974 -56.355507 -12.404549 139.880997 25.114527 -27.878435 43.321331 -21.456474 -12.958601 -83.297852 31.384573 13.245193 129.990631 -17.819326 -32.958149 16.792494 -20.236086 -21.703196 -27.397423 -14.340243 -21.018929 53.741459 23.892204 1.766045 -24.007170 15.063091 11.684394 
-21.628925 152.711060 -50.341774 -18.857439 0.073932 145.082169 61.963387 0.693220 -15.934705 -20.839844 0.000000 0.000000 -15.085885 -7.777611 41.650803 -2.520846 -1.255050 0.218350 -4.754607 -0.109226 -0.002657 -99.514496 -29.069742 42.142632 -10.796838 12.197358 7.172675 -21.274067 5.409565 -54.284611 4.754607 0.109226 -0.002676 67.151543 -56.671009 -13.369355 139.625275 24.977535 -27.697704 43.779285 -21.590599 -13.310911 -84.238548 30.420238 12.807660 129.305878 -17.613731 -32.557289 16.402784 -20.335899 -21.449881 -27.313051 -14.002384 -21.112993 52.443443 23.922016 1.117589 -23.667858 15.282599 10.948427 
-21.783260 152.910583 -50.033607 -18.985973 0.729519 147.463882 62.146286 0.800639 -15.682249 -20.839844 0.000000 0.000000 -14.253512 -7.957975 39.678074 -2.520846 -1.255050 0.218350 -4.754607 -0.109226 -0.002657 -99.977623 -31.481152 44.232410 -8.907534 11.051683 7.350569 -21.083750 4.449357 -54.558434 4.754607 0.109226 -0.002676 64.636429 -56.207184 -11.267375 139.245209 26.231457 -28.560539 41.274666 -20.632935 -12.539585 -84.800133 29.323044 12.503607 128.358002 -17.487417 -31.883835 17.150196 -20.393248 -21.417599 -26.814867 -13.836151 -21.425463 51.040997 24.070417 0.427254 -23.047087 15.629460 10.602537 
-21.922672 153.158844 -49.703636 -18.756983 1.535041 149.732880 62.661858 0.694756 -15.474816 -20.839844 0.000000 0.000000 -13.581484 -7.117037 37.880543 -2.520846 -1.255050 0.218350 -4.754607 -0.109226 -0.002657 -100.136757 -33.291077 44.843639 -7.547679 9.855234 6.845399 -20.419430 3.915752 -53.708607 4.754607 0.109226 -0.002676 64.500389 -55.897568 -10.695529 138.395370 27.039789 -28.088171 39.945980 -19.834997 -11.245254 -85.228218 27.915890 12.055226 126.901184 -17.175007 -30.784225 18.879093 -20.809200 -23.475283 -25.896444 -13.601273 -21.832382 49.540585 24.248034 -0.442824 -22.237385 15.815398 10.664547 
